<svg width="24" height="25" viewBox="0 0 24 25" fill="none" xmlns="http://www.w3.org/2000/svg">
<path d="M21.7961 20.7042L17.3439 16.2501C18.6788 14.5106 19.302 12.3284 19.0871 10.1462C18.8723 7.96401 17.8354 5.94527 16.1868 4.49948C14.5383 3.05369 12.4015 2.2891 10.21 2.36083C8.01841 2.43255 5.9362 3.33521 4.3857 4.8857C2.83521 6.4362 1.93255 8.51841 1.86083 10.71C1.7891 12.9015 2.55369 15.0383 3.99948 16.6868C5.44527 18.3354 7.46401 19.3723 9.64618 19.5871C11.8284 19.802 14.0106 19.1788 15.7501 17.8439L20.2061 22.3007C20.3107 22.4054 20.4349 22.4884 20.5717 22.545C20.7084 22.6017 20.8549 22.6308 21.0029 22.6308C21.1509 22.6308 21.2975 22.6017 21.4342 22.545C21.5709 22.4884 21.6952 22.4054 21.7998 22.3007C21.9044 22.1961 21.9875 22.0719 22.0441 21.9351C22.1007 21.7984 22.1299 21.6519 22.1299 21.5039C22.1299 21.3559 22.1007 21.2093 22.0441 21.0726C21.9875 20.9359 21.9044 20.8116 21.7998 20.707L21.7961 20.7042ZM4.12512 11.0001C4.12512 9.73926 4.499 8.50672 5.1995 7.45836C5.89999 6.40999 6.89563 5.59289 8.06051 5.11038C9.22539 4.62788 10.5072 4.50163 11.7438 4.74761C12.9804 4.99359 14.1164 5.60075 15.0079 6.49231C15.8995 7.38387 16.5066 8.51979 16.7526 9.75642C16.9986 10.993 16.8724 12.2748 16.3898 13.4397C15.9073 14.6046 15.0902 15.6002 14.0419 16.3007C12.9935 17.0012 11.761 17.3751 10.5001 17.3751C8.80989 17.3734 7.1894 16.7012 5.99423 15.506C4.79906 14.3108 4.12685 12.6903 4.12512 11.0001Z" fill="black" fill-opacity="0.4"/>
</svg>
