<svg width="30" height="30" viewBox="0 0 30 30" fill="none" xmlns="http://www.w3.org/2000/svg">
<path d="M6.55003 22.5L11.55 21.25C11.7718 21.1973 11.975 21.0849 12.1375 20.925L24.1125 8.93749C24.8148 8.23437 25.2092 7.28125 25.2092 6.28749C25.2092 5.29374 24.8148 4.34062 24.1125 3.63749L23.9 3.42499C23.1969 2.72274 22.2438 2.32829 21.25 2.32829C20.2563 2.32829 19.3032 2.72274 18.6 3.42499L6.61253 15.3625C6.45265 15.525 6.34026 15.7282 6.28753 15.95L5.03753 20.95C4.97802 21.1613 4.9752 21.3845 5.02937 21.5973C5.08353 21.81 5.19277 22.0047 5.34608 22.1619C5.4994 22.319 5.69139 22.4329 5.90273 22.4923C6.11408 22.5517 6.33733 22.5543 6.55003 22.5ZM21.25 4.78749C21.4145 4.78654 21.5776 4.81807 21.7299 4.88028C21.8822 4.94248 22.0207 5.03414 22.1375 5.14999L22.35 5.36249C22.4672 5.4787 22.5602 5.61695 22.6236 5.76927C22.6871 5.9216 22.7198 6.08498 22.7198 6.24999C22.7198 6.41501 22.6871 6.57839 22.6236 6.73071C22.5602 6.88304 22.4672 7.02129 22.35 7.13749L20.6 8.87499L18.625 6.89999L20.3625 5.14999C20.4793 5.03414 20.6179 4.94248 20.7701 4.88028C20.9224 4.81807 21.0855 4.78654 21.25 4.78749ZM8.62503 16.8875L16.85 8.66249L18.8375 10.65L10.6125 18.875L7.96253 19.5375L8.62503 16.8875ZM27.5 25C27.5 25.3315 27.3683 25.6495 27.1339 25.8839C26.8995 26.1183 26.5816 26.25 26.25 26.25H6.25003C5.91851 26.25 5.60057 26.1183 5.36615 25.8839C5.13173 25.6495 5.00003 25.3315 5.00003 25C5.00003 24.6685 5.13173 24.3505 5.36615 24.1161C5.60057 23.8817 5.91851 23.75 6.25003 23.75H26.25C26.5816 23.75 26.8995 23.8817 27.1339 24.1161C27.3683 24.3505 27.5 24.6685 27.5 25ZM17.5 18.75H26.25C26.5816 18.75 26.8995 18.8817 27.1339 19.1161C27.3683 19.3505 27.5 19.6685 27.5 20C27.5 20.3315 27.3683 20.6495 27.1339 20.8839C26.8995 21.1183 26.5816 21.25 26.25 21.25H17.5C17.1685 21.25 16.8506 21.1183 16.6161 20.8839C16.3817 20.6495 16.25 20.3315 16.25 20C16.25 19.6685 16.3817 19.3505 16.6161 19.1161C16.8506 18.8817 17.1685 18.75 17.5 18.75Z" fill="#222221"/>
</svg>
